<?xml version="1.0" encoding="UTF-8"?><svg version="1.1" width="16px" height="16px" viewBox="0 0 16.0 16.0" xmlns="http://www.w3.org/2000/svg" xmlns:xlink="http://www.w3.org/1999/xlink"><defs><clipPath id="i0"><path d="M1440,0 L1440,1216 L0,1216 L0,0 L1440,0 Z"></path></clipPath><clipPath id="i1"><path d="M8,0 C12.4182684,0 16,3.58173165 16,8 C16,12.4182684 12.4182684,16 8,16 C7.49666835,16 7.08860759,15.5919392 7.08860759,15.0886076 C7.08860759,14.5852759 7.49666835,14.1772152 8,14.1772152 C11.4115646,14.1772152 14.1772152,11.4115646 14.1772152,8 C14.1772152,4.58843544 11.4115646,1.82278481 8,1.82278481 C4.58843544,1.82278481 1.82278481,4.58843544 1.82278481,8 C1.82278481,8.50333165 1.41472405,8.91139241 0.911392405,8.91139241 C0.408060759,8.91139241 0,8.50333165 0,8 C0,3.58173165 3.58173165,0 8,0 Z"></path></clipPath></defs><g transform="translate(-235.0 -288.0)"><g clip-path="url(#i0)"><g transform="translate(100.00000000000091 262.0)"><g transform="translate(155.0 46.0) rotate(-180.0)"><g transform="translate(4.0000000000009095 4.0)"><g clip-path="url(#i1)"><polygon points="0,0 16,0 16,16 0,16 0,0" stroke="none" fill="#FFFFFF"></polygon></g></g></g></g></g></g></svg>