<svg width="14.520752" height="11.785767" viewBox="0 0 14.5208 11.7858" fill="none" xmlns="http://www.w3.org/2000/svg" xmlns:xlink="http://www.w3.org/1999/xlink">
	<desc>
			Created with Pixso.
	</desc>
	<path id="Vector" d="M13.0286 2.93842C13.0366 3.06433 13.0366 3.19556 13.0366 3.32416C13.0366 7.25629 10.042 11.7858 4.56982 11.7858C2.88232 11.7858 1.31787 11.2956 0 10.4518C0.241211 10.4786 0.471436 10.4893 0.718018 10.4893C2.11084 10.4893 3.39111 10.0179 4.41162 9.21967C3.10449 9.19287 2.00635 8.33575 1.63135 7.15717C2.08936 7.22412 2.50195 7.22412 2.97339 7.10358C2.30029 6.96686 1.69531 6.60132 1.26123 6.06909C0.827148 5.53687 0.59082 4.87079 0.592041 4.18396L0.592041 4.14642C0.98584 4.36877 1.44922 4.50537 1.93408 4.52411C1.52637 4.2525 1.19214 3.88452 0.960938 3.45276C0.729736 3.02106 0.608398 2.53894 0.608154 2.04913C0.608154 1.49469 0.752686 0.988403 1.0127 0.549133C1.75977 1.46881 2.69189 2.22095 3.74878 2.75671C4.80542 3.29248 5.96313 3.59991 7.14648 3.65894C6.72607 1.63666 8.23682 0 10.0527 0C10.9099 0 11.6814 0.358948 12.2251 0.9375C12.8975 0.811646 13.5403 0.559875 14.1135 0.222351C13.8911 0.910767 13.425 1.492 12.8064 1.85895C13.4062 1.79468 13.9849 1.6286 14.5208 1.39557C14.1162 1.99023 13.6099 2.51788 13.0286 2.93842Z" fill-rule="evenodd" fill="#000000"/>
	<defs/>
</svg>
