<svg width="19.160156" height="3.222656" viewBox="0 0 19.1602 3.22266" fill="none" xmlns="http://www.w3.org/2000/svg" xmlns:xlink="http://www.w3.org/1999/xlink">
	<desc>
			Created with Pixso.
	</desc>
	<path id="..." d="M0.21582 0.750763Q0 1.13513 0 1.64062Q0 2.08887 0.184814 2.43988Q0.277832 2.61652 0.41748 2.76855Q0.452393 2.80664 0.490479 2.84155Q0.905029 3.22266 1.66992 3.22266Q2.43213 3.22266 2.85864 2.8443Q2.89941 2.80817 2.93701 2.76855Q3.09692 2.60052 3.19775 2.40244Q3.36914 2.06512 3.36914 1.64062Q3.36914 1.16116 3.16821 0.79068Q3.07446 0.617859 2.93701 0.46875Q2.88525 0.41272 2.82788 0.363403Q2.40503 0 1.66992 0Q0.931152 0 0.519287 0.366882Q0.465576 0.414703 0.41748 0.46875Q0.300049 0.600494 0.21582 0.750763ZM8.11133 0.750763Q7.89551 1.13513 7.89551 1.64062Q7.89551 2.08887 8.08032 2.43988Q8.17334 2.61652 8.31299 2.76855Q8.3479 2.80664 8.38599 2.84155Q8.80054 3.22266 9.56543 3.22266Q10.3276 3.22266 10.7542 2.8443Q10.7949 2.80817 10.8325 2.76855Q10.9924 2.60052 11.0933 2.40244Q11.2646 2.06512 11.2646 1.64062Q11.2646 1.16116 11.0637 0.79068Q10.97 0.617859 10.8325 0.46875Q10.7808 0.41272 10.7234 0.363403Q10.3005 0 9.56543 0Q8.82666 0 8.41479 0.366882Q8.36108 0.414703 8.31299 0.46875Q8.19556 0.600494 8.11133 0.750763ZM16.0068 0.750763Q15.791 1.13513 15.791 1.64062Q15.791 2.08887 15.9758 2.43988Q16.0688 2.61652 16.2085 2.76855Q16.2434 2.80664 16.2815 2.84155Q16.696 3.22266 17.4609 3.22266Q18.2231 3.22266 18.6497 2.8443Q18.6904 2.80817 18.728 2.76855Q18.8879 2.60052 18.9888 2.40244Q19.1602 2.06512 19.1602 1.64062Q19.1602 1.16116 18.9592 0.79068Q18.8655 0.617859 18.728 0.46875Q18.6763 0.41272 18.6189 0.363403Q18.196 0 17.4609 0Q16.7222 0 16.3103 0.366882Q16.2566 0.414703 16.2085 0.46875Q16.0911 0.600494 16.0068 0.750763Z" fill="#494C90FF"/>
	<defs/>
</svg>
