<svg width="14.024658" height="7.003632" viewBox="0 0 14.0247 7.00363" fill="none" xmlns="http://www.w3.org/2000/svg" xmlns:xlink="http://www.w3.org/1999/xlink">
	<desc>
			Created with Pixso.
	</desc>
	<path id="Vector" d="M7.00122 7.00128C6.76758 7.00168 6.54102 6.92038 6.36133 6.77128L0.361328 1.77127C0.156982 1.60147 0.0285645 1.35757 0.00415039 1.09319C-0.0202637 0.828751 0.0615234 0.565475 0.231201 0.361252C0.400879 0.157043 0.64502 0.0286102 0.909424 0.00422668C1.17383 -0.0201416 1.43701 0.0615234 1.64136 0.231262L7.00122 4.71128L12.3613 0.391251C12.4636 0.308182 12.5813 0.246155 12.7075 0.208725C12.834 0.171295 12.9663 0.159195 13.0974 0.173141C13.2285 0.187073 13.3555 0.226776 13.4712 0.289948C13.5867 0.353119 13.6887 0.438522 13.7712 0.54126C13.8628 0.644073 13.9321 0.764694 13.9751 0.895584C14.0178 1.02647 14.0332 1.16478 14.02 1.30177C14.0068 1.43887 13.9656 1.57178 13.8987 1.69208C13.8318 1.81248 13.7407 1.91768 13.6311 2.00128L7.6311 6.83128C7.44604 6.95678 7.22437 7.01658 7.00122 7.00128Z" fill-rule="evenodd" fill="#4B4B4B"/>
	<defs/>
</svg>
