<?xml version="1.0" standalone="no"?><!DOCTYPE svg PUBLIC "-//W3C//DTD SVG 1.1//EN" "http://www.w3.org/Graphics/SVG/1.1/DTD/svg11.dtd"><svg t="1684085027513" class="icon" viewBox="0 0 1024 1024" version="1.1" xmlns="http://www.w3.org/2000/svg" p-id="15405" xmlns:xlink="http://www.w3.org/1999/xlink" width="16" height="16"><path d="M11.428571 508.781714c0 20.571429 16.274286 33.005714 36.425143 33.005715 12.434286 0 22.290286-5.997714 30.866286-14.573715L497.005714 146.212571c4.699429-4.717714 9.856-6.436571 15.414857-6.436571 5.156571 0 9.874286 1.718857 14.994286 6.436571l417.865143 381.001143c8.996571 8.576 18.852571 14.573714 30.866286 14.573715 20.132571 0 36.425143-12.434286 36.425143-33.005715 0-12.854857-4.717714-20.992-12.854858-28.288l-148.297142-135.003428V92.214857c0-18.852571-11.995429-30.866286-30.848-30.866286h-56.137143c-18.432 0-31.286857 12.013714-31.286857 30.866286v145.718857l-169.728-155.154285C548.425143 68.644571 529.993143 61.805714 512 61.805714c-18.011429 0-36.004571 6.857143-51.437714 20.992L24.283429 480.493714c-7.716571 7.296-12.854857 15.433143-12.854858 28.288z m122.569143 359.570286c0 59.574857 36.004571 94.299429 96.420572 94.299429h173.586285V657.92c0-19.712 13.275429-32.548571 32.987429-32.548571h151.296c19.712 0 32.566857 12.836571 32.566857 32.548571v304.731429h173.147429c60.416 0 96-34.724571 96-94.299429V554.642286l-363.867429-327.862857c-4.717714-4.278857-9.856-6.418286-14.994286-6.418286-4.717714 0-9.435429 2.139429-14.573714 6.857143L133.997714 556.781714z" p-id="15406" fill="#ffffff"></path></svg>