<?xml version="1.0" standalone="no"?><!DOCTYPE svg PUBLIC "-//W3C//DTD SVG 1.1//EN" "http://www.w3.org/Graphics/SVG/1.1/DTD/svg11.dtd"><svg t="1684124462265" class="icon" viewBox="0 0 1024 1024" version="1.1" xmlns="http://www.w3.org/2000/svg" p-id="22410" xmlns:xlink="http://www.w3.org/1999/xlink" width="16" height="16"><path d="M112.228037 296.934806c0 0 80.84119-125.866662 208.754464-193.404871s285.502429-48.095391 388.856355 17.396205 138.146337 120.750131 138.146337 120.750131l89.027639-51.16531c0 0 18.419512-9.209756 18.419512 12.279674s0 321.318146 0 321.318146 0 28.652574-21.48943 18.419512c-18.078751-8.609075-213.596749-120.784924-275.207969-156.176992-33.830503-15.226796-4.107551-27.595498-4.107551-27.595498l85.910649-49.541323c0 0-49.004087-61.923328-120.724549-94.717222-76.773548-40.359196-148.645458-45.144176-236.690724-11.608386-57.407478 21.86703-124.999922 77.853136-173.680645 160.560836C112.228037 296.934806 112.228037 296.934806 112.228037 296.934806zM910.406872 721.592552c0 0-80.84119 125.866662-208.754464 193.404871s-285.502429 48.095391-388.856355-17.396205-138.146337-120.750131-138.146337-120.750131l-89.027639 51.16531c0 0-18.419512 9.209756-18.419512-12.279674s0-321.318146 0-321.318146 0-28.652574 21.48943-18.419512c18.078751 8.609075 213.596749 120.784924 275.207969 156.176992 33.830503 15.226796 4.107551 27.595498 4.107551 27.595498l-85.910649 49.541323c0 0 49.004087 61.923328 120.724549 94.717222 76.773548 40.359196 148.645458 45.144176 236.690724 11.608386 57.407478-21.86703 124.999922-77.853136 173.680645-160.560836C910.406872 721.592552 910.406872 721.592552 910.406872 721.592552z" fill="#272636" p-id="22411"></path></svg>